<svg width="624" height="62" viewBox="0 0 624 62" fill="none" xmlns="http://www.w3.org/2000/svg">
<rect width="624" height="62" fill="#1F1E1E"/>
<path d="M269.82 44.576C267.54 44.576 265.584 44.192 263.952 43.424C262.344 42.656 261.036 41.636 260.028 40.364C259.02 39.068 258.276 37.64 257.796 36.08C257.316 34.52 257.076 32.96 257.076 31.4C257.076 29.888 257.328 28.364 257.832 26.828C258.36 25.268 259.14 23.84 260.172 22.544C261.204 21.248 262.512 20.204 264.096 19.412C265.68 18.62 267.528 18.224 269.64 18.224C271.848 18.224 273.744 18.62 275.328 19.412C276.936 20.204 278.256 21.26 279.288 22.58C280.344 23.876 281.124 25.292 281.628 26.828C282.132 28.364 282.384 29.888 282.384 31.4C282.384 32.888 282.12 34.412 281.592 35.972C281.088 37.508 280.32 38.924 279.288 40.22C278.256 41.516 276.948 42.572 275.364 43.388C273.78 44.18 271.932 44.576 269.82 44.576ZM270 42.704C271.392 42.704 272.592 42.392 273.6 41.768C274.632 41.144 275.472 40.316 276.12 39.284C276.792 38.228 277.284 37.076 277.596 35.828C277.908 34.556 278.064 33.296 278.064 32.048C278.064 30.512 277.872 29.036 277.488 27.62C277.128 26.18 276.588 24.896 275.868 23.768C275.148 22.616 274.248 21.716 273.168 21.068C272.088 20.396 270.84 20.06 269.424 20.06C268.032 20.06 266.82 20.384 265.788 21.032C264.78 21.68 263.94 22.532 263.268 23.588C262.62 24.62 262.128 25.772 261.792 27.044C261.48 28.316 261.324 29.576 261.324 30.824C261.324 32.096 261.492 33.428 261.828 34.82C262.164 36.188 262.68 37.472 263.376 38.672C264.072 39.872 264.96 40.844 266.04 41.588C267.144 42.332 268.464 42.704 270 42.704ZM295.23 44V42.416C296.022 42.392 296.586 42.236 296.922 41.948C297.282 41.636 297.51 41.192 297.606 40.616C297.702 40.04 297.75 39.308 297.75 38.42V23.444C297.75 22.34 297.786 21.404 297.858 20.636C297.45 20.66 297.006 20.684 296.526 20.708C296.046 20.732 295.614 20.756 295.23 20.78V18.8H304.086V20.384C303.318 20.408 302.754 20.576 302.394 20.888C302.034 21.176 301.806 21.608 301.71 22.184C301.614 22.76 301.566 23.492 301.566 24.38V30.248H313.482V23.444C313.482 22.916 313.482 22.412 313.482 21.932C313.506 21.428 313.542 20.996 313.59 20.636C313.158 20.66 312.702 20.684 312.222 20.708C311.766 20.732 311.346 20.756 310.962 20.78V18.8H319.818V20.384C319.026 20.408 318.45 20.576 318.09 20.888C317.754 21.176 317.538 21.608 317.442 22.184C317.346 22.76 317.298 23.492 317.298 24.38V39.176C317.298 40.472 317.262 41.468 317.19 42.164C317.598 42.14 318.042 42.116 318.522 42.092C319.002 42.044 319.434 42.02 319.818 42.02V44H310.962V42.416C311.754 42.392 312.318 42.236 312.654 41.948C313.014 41.636 313.242 41.192 313.338 40.616C313.434 40.04 313.482 39.308 313.482 38.42V32.12L301.566 32.228V39.176C301.566 40.472 301.53 41.468 301.458 42.164C301.866 42.14 302.31 42.116 302.79 42.092C303.27 42.044 303.702 42.02 304.086 42.02V44H295.23ZM321.621 44V42.38C322.341 42.38 322.893 42.188 323.277 41.804C323.661 41.42 323.985 40.904 324.249 40.256C324.513 39.584 324.801 38.84 325.113 38.024L332.385 18.116H333.825L341.709 38.312C341.901 38.768 342.105 39.392 342.321 40.184C342.561 40.952 342.681 41.612 342.681 42.164C343.089 42.14 343.485 42.116 343.869 42.092C344.277 42.044 344.661 42.02 345.021 42.02V44H336.273V42.416C337.113 42.392 337.665 42.212 337.929 41.876C338.217 41.516 338.325 41.084 338.253 40.58C338.205 40.076 338.085 39.572 337.893 39.068L336.813 36.152L327.993 36.368L326.949 39.5C326.613 40.484 326.289 41.36 325.977 42.128C326.409 42.104 326.865 42.08 327.345 42.056C327.849 42.008 328.293 41.984 328.677 41.984V44H321.621ZM328.641 34.424H336.201L333.933 28.34C333.645 27.572 333.369 26.792 333.105 26C332.841 25.208 332.601 24.452 332.385 23.732H332.349C332.133 24.332 331.905 24.992 331.665 25.712C331.449 26.432 331.185 27.212 330.873 28.052L328.641 34.424ZM365.788 26.828C365.5 24.668 364.744 23.012 363.52 21.86C362.32 20.684 360.736 20.084 358.768 20.06C357.088 20.06 355.6 20.54 354.304 21.5C353.008 22.46 351.988 23.78 351.244 25.46C350.524 27.14 350.164 29.048 350.164 31.184C350.164 33.392 350.548 35.336 351.316 37.016C352.108 38.696 353.176 40.004 354.52 40.94C355.864 41.876 357.4 42.344 359.128 42.344C360.664 42.344 362.176 41.984 363.664 41.264C365.176 40.52 366.424 39.476 367.408 38.132L368.596 39.14C367.516 40.628 366.364 41.768 365.14 42.56C363.916 43.328 362.692 43.856 361.468 44.144C360.268 44.432 359.176 44.576 358.192 44.576C356.368 44.576 354.7 44.252 353.188 43.604C351.7 42.956 350.416 42.044 349.336 40.868C348.256 39.692 347.416 38.336 346.816 36.8C346.216 35.24 345.916 33.572 345.916 31.796C345.916 30.116 346.18 28.472 346.708 26.864C347.236 25.256 348.016 23.804 349.048 22.508C350.08 21.188 351.376 20.144 352.936 19.376C354.52 18.608 356.356 18.224 358.444 18.224C360.916 18.224 363.232 18.908 365.392 20.276L365.212 18.476H367.444V26.828H365.788Z" fill="white"/>
</svg>
